# xmcd
#
# Track frame offsets:
#	150
#	7648
#	22935
#	31225
#	50932
#	74040
#	89657
#	106480
#	116808
#	131427
#	143676
#	156610
#	171943
#	191384
#	206450
#	216148
#	227952
#	241756
#	255320
#	285662
#
# Disc length: 4108 seconds
#
# Revision: 0
# Processed by: cddbd v1.5.2PL0 Copyright (c) Steve Scherf et al.
# Submitted via: EasyCDDAExtractor 11.0.3.1
#
DISCID=1e100a14
DTITLE=Various Artist - The Outlaw Trail Collection D2
DYEAR=1900
DGENRE=Country
TTITLE0=Willie Nelson - I Gotta Get Drunk
TTITLE1=Asleep at the Wheel - Miles and Miles of Texas
TTITLE2=Johnny Cash - Wreck of the Old '97
TTITLE3=Steve Goodman - City of New Orleans
TTITLE4=John Prine - Angel from Montgomery
TTITLE5=Becky Hobbs - The Boots I Came to Town In
TTITLE6=The Charlie Daniels Band - Devil Went Down to Georgia
TTITLE7=Dave Dudley - Six Days on the Road
TTITLE8=Eddie Rabbit - Drivin' My Life Away
TTITLE9=Merle Haggard - Tonight the Bottle Let Me Down
TTITLE10=Johnny Paycheck - Take This Job and Shove It
TTITLE11=Hoyt Axton - Della and the Dealer
TTITLE12=Jerry Jeff Walker - Texas on My Mind
TTITLE13=The Amazing Rhythm Aces - Third Rate Romance
TTITLE14=Johnny Rodriguez - Ridin' My Thumb to Mexico
TTITLE15=David Allen Coe - Ruby Don't Take Your Love to Town
TTITLE16=Bobby Bare - Ride Me Down Easy
TTITLE17=Ray Benson, Jessi Colter, et al - My Heroes Have Always Been Cowboys
TTITLE18=The Marshall Tucker Band - This Ol' Cowboy
TTITLE19=Ed Bruce - The Last Cowboy Song
EXTD=
EXTT0=
EXTT1=
EXTT2=
EXTT3=
EXTT4=
EXTT5=
EXTT6=
EXTT7=
EXTT8=
EXTT9=
EXTT10=
EXTT11=
EXTT12=
EXTT13=
EXTT14=
EXTT15=
EXTT16=
EXTT17=
EXTT18=
EXTT19=
PLAYORDER=
